PathFileType	4	(X/Y/Z)	webcam_static.trc
DataRate	CameraRate	NumFrames	NumMarkers	Units	OrigDataRate	OrigDataStartFrame	OrigNumFrames
29.300983568096093	29.300983568096093	23	12	mm	29.300983568096093	809	1294
Frame#	Time	JOINT_RIGHT_SHOULDER			JOINT_LEFT_SHOULDER			JOINT_RIGHT_ELBOW			JOINT_LEFT_ELBOW			JOINT_LEFT_WRIST			JOINT_RIGHT_WRIST			JOINT_RIGHT_PINKY			JOINT_LEFT_PINKY			JOINT_RIGHT_INDEX			JOINT_LEFT_INDEX			JOINT_RIGHT_HIP			JOINT_LEFT_HIP
		X1	Y1	Z1	X2	Y2	Z2	X3	Y3	Z3	X4	Y4	Z4	X5	Y5	Z5	X6	Y6	Z6	X7	Y7	Z7	X8	Y8	Z8	X9	Y9	Z9	X10	Y10	Z10	X11	Y11	Z11	X12	Y12	Z12

809	1753709335.997263	176.616043	423.570901	166.931227	109.329104	424.362719	-164.205998	153.161719	159.766331	225.642622	80.022156	182.941690	-192.102239	192.995220	-11.633291	-274.173051	243.852079	-46.677925	323.827624	263.933003	-99.304073	351.130754	217.256308	-77.667348	-304.062486	300.392568	-102.809533	337.902725	254.586726	-80.633119	-285.855323	17.811049	1.730731	119.666062	-19.132152	-0.927124	-118.894555
810	1753709336.032512	176.456705	423.674315	166.928381	109.274335	424.444735	-164.188564	153.043345	159.803480	225.571305	80.026612	183.188826	-192.103371	193.250045	-11.476859	-274.189711	243.642092	-46.576854	323.678523	263.678551	-99.213570	351.043940	217.431590	-77.524729	-304.057598	300.032288	-102.705628	337.876409	254.849315	-80.540106	-285.863936	17.784530	1.751647	119.662516	-19.105567	-0.948016	-118.890852
811	1753709336.066389	176.339850	423.680842	166.916579	108.755298	424.438059	-164.116472	152.733415	159.820244	225.494817	79.482615	183.200002	-192.040011	193.190187	-11.431522	-274.062365	243.486226	-46.564270	323.391408	263.598263	-99.209666	350.657463	217.407554	-77.506781	-303.860813	299.985796	-102.698743	337.511718	254.825234	-80.513060	-285.666168	17.780937	1.752162	119.656064	-19.101394	-0.948613	-118.883424
812	1753709336.100251	175.649121	423.745692	167.133361	108.268842	424.438030	-163.981780	151.962250	159.987241	225.570545	79.136759	183.243200	-192.046896	192.898795	-11.503474	-274.039268	242.724955	-46.346687	323.371947	262.883842	-99.007852	350.614905	217.093050	-77.624187	-303.797156	299.108267	-102.466241	337.468743	254.544318	-80.659643	-285.538256	17.779507	1.760821	119.658142	-19.100325	-0.957850	-118.885763
813	1753709336.133544	175.663844	423.589021	167.325348	108.241677	424.352378	-163.921297	152.125120	159.892336	225.667164	79.240300	183.218509	-192.100286	193.086535	-11.560752	-274.093926	243.059516	-46.461016	323.421627	263.319045	-99.211492	350.661099	217.318475	-77.712484	-303.851098	299.572229	-102.631196	337.493032	254.743189	-80.740303	-285.537064	17.788801	1.764116	119.667277	-19.109491	-0.961084	-118.894778
814	1753709336.167171	174.567163	423.603505	167.510331	106.966414	424.406528	-163.678244	150.356427	159.924880	225.713983	77.783592	183.399111	-192.059383	192.260966	-11.553859	-273.976058	241.393879	-46.460733	323.447436	261.704296	-99.263661	350.721449	216.435492	-77.767678	-303.598046	298.055559	-102.701828	337.582469	253.940046	-80.826350	-285.172492	17.787538	1.776685	119.668387	-19.108014	-0.973364	-118.895873
815	1753709336.206016	173.795849	423.692852	167.760968	106.249630	424.473077	-163.450927	149.139374	160.126790	225.747406	77.460870	183.603168	-192.070857	192.292854	-11.459051	-273.872435	240.453541	-46.255764	323.447257	260.899991	-99.168345	350.714535	216.564506	-77.764533	-303.389251	297.398657	-102.574408	337.583393	254.056603	-80.811195	-284.760743	17.774690	1.754581	119.672492	-19.094970	-0.951997	-118.899487
816	1753709336.237349	173.962921	423.694134	168.037146	106.687829	424.476922	-163.231909	149.633914	160.138130	226.226643	78.341290	183.702648	-192.101508	193.760589	-11.318062	-273.866266	241.078407	-46.197992	323.558003	261.667341	-99.134505	350.779265	218.189046	-77.662632	-303.357512	298.176438	-102.469265	337.646216	255.695134	-80.683112	-284.690738	17.725689	1.744271	119.672261	-19.046957	-0.941780	-118.898943
817	1753709336.276116	173.962906	423.476428	168.281987	106.718093	424.491018	-163.061649	149.435937	160.077810	226.478666	78.403108	183.967903	-192.083269	194.086567	-11.026572	-273.786962	240.748152	-46.217564	323.838562	261.308908	-99.223033	350.957781	218.658552	-77.546246	-303.259850	297.915816	-102.486394	337.878048	256.120592	-80.550529	-284.456849	17.725786	1.731875	119.678244	-19.047486	-0.929485	-118.905753
818	1753709336.306273	173.867166	423.518002	168.371424	106.687509	424.539924	-162.902370	149.344772	160.128310	226.508036	78.394540	184.073776	-191.897303	194.287226	-10.793620	-273.234636	240.737513	-46.052769	323.803186	261.327595	-99.129133	350.898981	218.960747	-77.390738	-302.434683	297.921598	-102.306247	337.823838	256.467402	-80.361173	-283.579916	17.718721	1.734524	119.679362	-19.040767	-0.932121	-118.907042
819	1753709336.339922	173.892409	423.517644	168.496922	106.723815	424.568087	-162.681192	149.446338	160.136625	226.559058	78.517407	184.170634	-191.746384	194.639266	-10.647560	-272.725701	241.044044	-46.004232	323.806673	261.789054	-99.125773	350.906163	219.309315	-77.351406	-301.648974	298.404992	-102.287553	337.832332	256.864190	-80.310613	-282.705128	17.717326	1.734086	119.679205	-19.039508	-0.931226	-118.906669
820	1753709336.372993	174.638882	423.451096	168.501914	107.150927	424.584687	-162.657708	149.842218	160.063133	226.390660	78.611225	184.254184	-191.676214	194.619194	-10.527330	-272.651345	241.268784	-46.014123	323.773265	262.038440	-99.286795	350.938439	219.192535	-77.342063	-301.414609	298.696965	-102.458037	337.885439	256.803006	-80.310360	-282.555997	17.741658	1.752675	119.670749	-19.064508	-0.946601	-118.898086
821	1753709336.411214	175.895795	423.282504	168.515429	108.317062	424.565881	-162.630081	151.426494	159.866408	226.441234	80.261551	184.246272	-191.415742	197.369590	-10.111031	-272.094935	243.672699	-46.014942	323.643893	264.813274	-99.344507	350.598246	222.578213	-77.009469	-300.833404	301.840872	-102.446064	337.480724	260.071605	-79.809353	-281.937331	17.740043	1.728039	119.664401	-19.062845	-0.920455	-118.890986
822	1753709336.444355	176.379964	423.281074	168.523252	108.412229	424.572498	-162.609950	151.962057	159.774393	226.410642	80.219962	184.259549	-191.247255	196.838826	-10.003317	-272.067487	243.961230	-46.046570	323.381692	265.027940	-99.394627	350.397378	221.643180	-76.834559	-300.787479	301.997781	-102.482282	337.273180	259.202898	-79.633154	-281.936407	17.754814	1.730694	119.661264	-19.077742	-0.922026	-118.887536
823	1753709336.478877	179.522857	423.097163	168.458372	109.697655	424.549729	-162.604526	155.092910	159.378678	226.337448	80.690481	184.252426	-191.211462	196.841836	-9.939442	-272.121668	246.664703	-46.206735	323.221505	267.734319	-99.625014	350.282311	221.596211	-76.777957	-300.827056	304.898381	-102.635473	337.147236	259.161502	-79.564884	-282.127827	17.788742	1.709673	119.649403	-19.111475	-0.897357	-118.874475
824	1753709336.508964	180.203244	423.063219	168.454349	110.225312	424.568564	-162.589207	156.371951	159.126177	226.252645	81.160679	184.250459	-191.136718	197.283372	-9.903750	-272.079408	248.533934	-46.250414	323.106557	269.805253	-99.664211	350.231349	221.873522	-76.735482	-300.744981	306.827039	-102.658279	337.111115	259.568989	-79.519711	-282.112688	17.795088	1.710440	119.639620	-19.117488	-0.897114	-118.863724
825	1753709336.545100	181.016639	423.053324	168.453887	111.363187	424.579233	-162.575424	157.255009	159.098297	226.203457	82.258038	184.256136	-191.079900	198.455542	-9.748294	-272.069633	249.506295	-46.258807	322.995871	270.900160	-99.719465	350.138575	222.918227	-76.586165	-300.720394	308.103234	-102.682114	337.052166	260.655522	-79.313532	-282.118469	17.779425	1.673237	119.636230	-19.101815	-0.857468	-118.859738
826	1753709336.577056	181.043327	422.987163	168.421969	111.622170	424.585551	-162.568122	157.354414	158.862829	226.186886	82.507960	184.262112	-191.064566	198.493570	-9.639568	-272.146165	249.444768	-46.390302	322.978258	270.811319	-99.841036	350.151598	222.891137	-76.385438	-300.768852	308.025360	-102.798708	337.080061	260.632724	-79.150923	-282.258719	17.777551	1.677172	119.632393	-19.099647	-0.860241	-118.855461
827	1753709336.613659	181.424737	422.859788	168.426186	111.633375	424.558073	-162.449270	157.630339	158.747271	226.129845	82.476884	184.218213	-190.827325	198.382735	-9.621691	-271.907687	249.691054	-46.458855	322.900832	271.098942	-99.933378	350.079089	222.770825	-76.372325	-300.502241	308.357179	-102.890834	337.007612	260.530591	-79.137579	-282.082438	17.777262	1.645686	119.620495	-19.099126	-0.827028	-118.842870
828	1753709336.647825	183.611691	422.695011	168.409467	112.382464	424.548537	-162.376076	161.082029	158.619270	226.038888	82.774878	184.220061	-190.788314	198.320195	-9.617610	-271.992236	252.691537	-46.582565	322.732866	274.216264	-100.048803	349.955708	222.514063	-76.356918	-300.604761	311.189860	-103.051007	336.842209	260.399878	-79.130821	-282.356948	17.799754	1.608002	119.599722	-19.121246	-0.787014	-118.820384
829	1753709336.680678	185.164183	422.090977	168.291941	113.092981	424.506605	-162.369683	162.404627	157.891139	225.940764	82.915388	184.205785	-190.767914	197.978690	-9.648115	-272.148073	253.110230	-47.271289	322.738767	274.441063	-100.688480	350.042790	221.768409	-76.365881	-300.816387	311.351359	-103.790961	336.971462	259.768844	-79.203956	-282.776326	17.839182	1.580684	119.581625	-19.159989	-0.756874	-118.801735
830	1753709336.715609	185.354516	421.928287	168.285683	113.120593	424.559623	-162.285402	162.337914	157.721296	225.766614	82.761541	184.517220	-190.716788	196.799397	-9.440470	-272.205800	252.821028	-47.453236	322.727203	273.903430	-100.937970	350.185782	219.834551	-76.231956	-300.832778	310.811996	-104.144074	337.216944	258.027196	-79.145737	-282.864869	17.874250	1.574945	119.559191	-19.193696	-0.749674	-118.778370
831	1753709336.751398	185.514718	421.781182	168.275848	112.991206	424.551576	-162.174240	162.618428	157.603860	225.690857	82.441576	184.482947	-190.457895	195.722312	-9.475357	-272.093832	252.934784	-47.707271	322.674006	274.006873	-101.140797	350.127965	218.727022	-76.224387	-300.772071	310.875624	-104.430638	337.121427	256.937534	-79.145007	-282.848179	17.928135	1.511125	119.547680	-19.246306	-0.686059	-118.766189
